# xmcd
#
# Track frame offsets:
#	150
#	16660
#	31080
#	44272
#	60567
#	77862
#	97397
#	112047
#	127400
#	143947
#	159002
#
# Disc length: 2580 seconds
#
# Revision: 1
# Processed by: cddbd v1.5.2PL0 Copyright (c) Steve Scherf et al.
# Submitted via: audiograbber 1.83.01
#
DISCID=900a120b
DTITLE=Various Artist - CDX 44 November 1992
DYEAR=1992
DGENRE=Country
TTITLE0=Mike Reid - Call Home
TTITLE1=Suzy Bogguss - Drive South
TTITLE2=Dennis Robbins - Good News, Bad News
TTITLE3=Tim Ryan - Idle Hands
TTITLE4=Roy Orbison - Drove All Night
TTITLE5=Rob Crosby - Is The Blood
TTITLE6=Randy Travis - Look Heart, No Hands
TTITLE7=Confederate Railroad - Queen Of Memphis
TTITLE8=Darryl and Don Ellis - Something Moving In Me
TTITLE9=Reba McEntire - Take It Back
TTITLE10=Michelle Wright - Liners
EXTD=
EXTT0=
EXTT1=
EXTT2=
EXTT3=
EXTT4=
EXTT5=
EXTT6=
EXTT7=
EXTT8=
EXTT9=
EXTT10=
PLAYORDER=
